<svg id="Layer_2" data-name="Layer 2" xmlns="http://www.w3.org/2000/svg" viewBox="0 0 382.42 284.15"><defs><style>.cls-1,.cls-2{fill:none;}.cls-1,.cls-2,.cls-3,.cls-4{stroke:#13bdb7;stroke-miterlimit:10;}.cls-1{stroke-width:4px;}.cls-2{stroke-width:2px;}.cls-3,.cls-4{fill:#13bdb7;}.cls-4{font-size:21px;font-family:Montserrat;}</style></defs><title>blue</title><circle class="cls-1" cx="202.3" cy="157.42" r="68"/><circle class="cls-2" cx="202.3" cy="157.42" r="61"/><circle class="cls-3" cx="108.26" cy="11.27" r="10.77"/><circle class="cls-3" cx="371.15" cy="71.25" r="10.77"/><circle class="cls-3" cx="346.9" cy="272.88" r="10.77"/><circle class="cls-3" cx="11.27" cy="225.42" r="10.77"/><polyline class="cls-1" points="157.2 106.53 157.2 62.32 108.26 45.73 108.26 11.27"/><polyline class="cls-1" points="260.21 121.76 307.48 121.76 329.03 71.25 371.15 71.25"/><polyline class="cls-1" points="251.52 204.33 251.52 249.91 296.71 272.88 346.9 272.88"/><polyline class="cls-1" points="141.3 187.49 91.67 187.49 64.87 225.42 11.27 225.42"/><line class="cls-1" x1="213.19" y1="176.45" x2="191.41" y2="198.53"/><line class="cls-1" x1="191.26" y1="176.6" x2="213.34" y2="198.38"/><text class="cls-4" transform="translate(179.88 136.36)">CSS </text><text class="cls-4" transform="translate(168.74 161.69)">things</text></svg>