<svg id="Layer_4" data-name="Layer 4" xmlns="http://www.w3.org/2000/svg" viewBox="0 0 403.78 290.44"><defs><style>.cls-1,.cls-2{fill:none;stroke:#f2118d;stroke-miterlimit:10;}.cls-1{stroke-width:4px;}.cls-2{stroke-width:2px;}.cls-3{fill:#f2118d;}</style></defs><title>pink</title><circle class="cls-1" cx="225.6" cy="220.44" r="68"/><circle class="cls-2" cx="225.6" cy="220.44" r="61"/><polyline class="cls-1" points="237.65 152.44 204.28 97.78 237.65 61.95 237.65 12.97"/><polyline class="cls-1" points="230.39 9.43 156.23 2.6 109.43 29.61 41.41 44.87"/><polyline class="cls-1" points="230.24 16.45 178.02 30.95 117.48 76.92 10.77 94.5"/><polyline class="cls-1" points="234.63 18.66 182.45 70.34 172.97 91.42 66.25 154.89"/><polyline class="cls-1" points="240.37 9.19 305.47 14.01 324.68 48.15 391.52 71.64"/><polyline class="cls-1" points="239.58 10.77 294.35 47.12 301.19 83.21 381.29 129.14"/><polyline class="cls-1" points="243.09 18.66 254.81 73.67 283.48 81.44 315.94 176.54"/><circle class="cls-3" cx="393.01" cy="70.45" r="10.77"/><circle class="cls-3" cx="381.29" cy="129.14" r="10.77"/><circle class="cls-3" cx="237.8" cy="10.77" r="10.77"/><circle class="cls-3" cx="315.94" cy="174.15" r="10.77"/><circle class="cls-3" cx="70.25" cy="154.89" r="10.77"/><circle class="cls-3" cx="10.77" cy="94.5" r="10.77"/><circle class="cls-3" cx="41.41" cy="44.87" r="10.77"/></svg>