<svg id="Layer_6" data-name="Layer 6" xmlns="http://www.w3.org/2000/svg" viewBox="0 0 345.54 294.15"><defs><style>.cls-1,.cls-2{fill:none;}.cls-1,.cls-2,.cls-3,.cls-4{stroke:#ff0303;stroke-miterlimit:10;}.cls-1{stroke-width:4px;}.cls-2{stroke-width:2px;}.cls-3,.cls-4{fill:#ff0303;}.cls-4{font-size:21px;font-family:Montserrat;}</style></defs><title>red</title><circle class="cls-1" cx="181.5" cy="168.19" r="68"/><circle class="cls-2" cx="181.5" cy="168.19" r="61"/><circle class="cls-3" cx="209.27" cy="11.27" r="10.77"/><circle class="cls-3" cx="318.27" cy="69.88" r="10.77"/><circle class="cls-3" cx="334.27" cy="184.38" r="10.77"/><circle class="cls-3" cx="274.74" cy="282.88" r="10.77"/><circle class="cls-3" cx="53.88" cy="272.11" r="10.77"/><circle class="cls-3" cx="11.27" cy="190.88" r="10.77"/><circle class="cls-3" cx="53.88" cy="69.88" r="10.77"/><line class="cls-1" x1="192.39" y1="187.22" x2="170.61" y2="209.3"/><line class="cls-1" x1="170.46" y1="187.37" x2="192.54" y2="209.15"/><polyline class="cls-1" points="181.5 100.19 181.5 64.88 209.27 44.88 209.27 11.27"/><polyline class="cls-1" points="231.21 121.8 263.27 93.88 302.27 93.88 318.27 69.88"/><path class="cls-1" d="M487,430" transform="translate(-466.73 -352.12)"/><path class="cls-1" d="M522,452.31" transform="translate(-466.73 -352.12)"/><polyline class="cls-1" points="247.56 184.38 274.74 208.88 310.27 208.88 334.27 184.38"/><polyline class="cls-1" points="131.79 214.58 107.27 250.88 65.27 250.88 53.88 273.88"/><polyline class="cls-1" points="202.29 232.94 202.29 262.88 242.5 262.88 274.74 282.88"/><polyline class="cls-1" points="131.79 117.96 105.27 95.84 64.65 95.84 53.88 69.88"/><polyline class="cls-1" points="113.5 168.19 72.27 168.19 43.12 190.88 11.27 190.88"/><text class="cls-4" transform="translate(125.05 172.79)">e<tspan x="11.72" y="0">xperien</tspan><tspan x="89.61" y="0">c</tspan><tspan x="100.92" y="0">e</tspan></text></svg>